<?xml version="1.0" encoding="iso-8859-1"?>
<!-- Generator: Adobe Illustrator 19.0.0, SVG Export Plug-In . SVG Version: 6.00 Build 0)  -->
<svg version="1.1" id="Capa_1" xmlns="http://www.w3.org/2000/svg" xmlns:xlink="http://www.w3.org/1999/xlink" x="0px" y="0px"
	 viewBox="0 0 512 512" style="enable-background:new 0 0 512 512;" xml:space="preserve">
<g>
	<g>
		<path d="M0,94.253v223.896h512V94.253H0z M256.631,303.536c-53.67,0-97.335-43.664-97.335-97.336
			c0-53.671,43.664-97.335,97.335-97.335s97.335,43.664,97.335,97.335S310.301,303.536,256.631,303.536z"/>
	</g>
</g>
<g>
	<g>
		<path d="M256.631,138.868c-37.127,0-67.332,30.205-67.332,67.332s30.205,67.333,67.332,67.333s67.332-30.205,67.332-67.333
			S293.758,138.868,256.631,138.868z M292.832,223.183c5.858,5.858,5.858,15.356,0,21.215c-2.929,2.929-6.769,4.394-10.607,4.394
			c-3.838,0-7.679-1.464-10.607-4.394l-15.982-15.982l-14.987,14.986c-2.929,2.929-6.77,4.394-10.607,4.394
			c-3.839,0-7.679-1.464-10.607-4.394c-5.858-5.858-5.858-15.356,0-21.215l14.987-14.986l-15.982-15.982
			c-5.858-5.858-5.858-15.356,0-21.215c5.857-5.858,15.356-5.858,21.215,0l15.982,15.982l16.978-16.978
			c5.857-5.858,15.356-5.857,21.215,0c5.858,5.858,5.858,15.356,0,21.215L276.852,207.2L292.832,223.183z"/>
	</g>
</g>
<g>
	<g>
		<path d="M0.642,348.151c4.263,29.29,29.535,51.86,59.988,51.86h180.999v69.996H135.085c-8.285,0-15.001,6.717-15.001,15.001
			c0,8.285,6.717,15.001,15.001,15.001h241.1c8.285,0,15.001-6.717,15.001-15.001c0-8.285-6.717-15.001-15.001-15.001H271.632
			v-69.996H451.37c30.452,0,55.724-22.571,59.988-51.86H0.642z"/>
	</g>
</g>
<g>
	<g>
		<path d="M451.37,11.991H60.63c-30.59,0-55.948,22.777-60.039,52.259h510.817C507.318,34.768,481.961,11.991,451.37,11.991z"/>
	</g>
</g>
<g>
</g>
<g>
</g>
<g>
</g>
<g>
</g>
<g>
</g>
<g>
</g>
<g>
</g>
<g>
</g>
<g>
</g>
<g>
</g>
<g>
</g>
<g>
</g>
<g>
</g>
<g>
</g>
<g>
</g>
</svg>
